<?xml version="1.0" encoding="UTF-8"?><svg id="Layer_1" xmlns="http://www.w3.org/2000/svg" viewBox="0 0 541.69 259.32"><defs><style>.cls-1{fill:currentColor;}</style></defs><path class="cls-1" d="m47.01,136.55c0,2.94-.56,5.59-1.68,7.94-1.12,2.35-2.88,4.21-5.26,5.57-2.38,1.37-5.5,2.05-9.36,2.05-4.49,0-8.33-1.03-11.52-3.1-3.19-2.07-5.17-5.1-5.94-9.1H0c.14,4.14,1.09,7.73,2.84,10.78,1.75,3.05,4.06,5.57,6.94,7.57,2.87,2,6.12,3.49,9.73,4.47,3.61.98,7.34,1.47,11.2,1.47,4.98,0,9.34-.7,13.09-2.1,3.75-1.4,6.9-3.35,9.46-5.84,2.56-2.49,4.49-5.34,5.78-8.57,1.3-3.22,1.95-6.62,1.95-10.2v-42.38h-13.99v41.43Zm478.49-41.43l-20.54,33.83-20.89-33.83h-16.19l29.87,46.58v21.45h14.09v-21.45l29.86-46.58h-16.19Zm-431.94,0l-31.97,68.04h15.14l.12-.26c5.41-7.66,14.31-12.68,24.38-12.68s19,5.03,24.4,12.71l.1.23h15.25l-32.28-68.04h-15.14Zm7.67,43.19c-5.06,0-9.92.91-14.41,2.57l14.32-31.63,14.42,31.6c-4.47-1.64-9.3-2.54-14.33-2.54Zm338.6-43.19l-31.97,68.04h15.14l.12-.26c5.41-7.66,14.31-12.68,24.38-12.68s19,5.03,24.4,12.71l.1.23h15.25l-32.28-68.04h-15.14Zm7.67,43.19c-5.06,0-9.92.91-14.41,2.57l14.32-31.63,14.42,31.6c-4.47-1.64-9.3-2.54-14.33-2.54ZM274.37,0c-59.65,0-109.88,40.28-125,95.11h13.6l50.58,49.81v-49.81h13.99v68.04h-13.99l-50.58-49.42v49.42h-13.88c14.77,55.37,65.26,96.17,125.28,96.17s110.57-40.84,125.31-96.25l-20.48-53.18-20.61,53.27h-17.14l-28.71-68.04h15.46l21.99,54.56,20.91-54.56h16.09l16.54,43.16c.19-2.85.29-5.72.29-8.61C404.03,58.05,345.98,0,274.37,0Zm30.76,163.15h-66.46v-68.04h66.36v11.67h-52.37v16.93h42.9v11.04h-42.9v16.72h52.47v11.67Z"/></svg>
