<?xml version="1.0" encoding="UTF-8"?>
<svg width="24px" height="24px" viewBox="0 0 24 24" version="1.1" xmlns="http://www.w3.org/2000/svg" xmlns:xlink="http://www.w3.org/1999/xlink">
    <!-- Generator: Sketch 42 (36781) - http://www.bohemiancoding.com/sketch -->
    <title>Group 1106</title>
    <desc>Created with Sketch.</desc>
    <defs></defs>
    <g id="Page-1" stroke="none" stroke-width="1" fill="none" fill-rule="evenodd" stroke-linejoin="round">
        <g id="Icons" transform="translate(-936.000000, -1344.000000)" stroke="#000000">
            <g id="Group-1106" transform="translate(936.000000, 1344.000000)">
                <path d="M23.5,17.5 C23.5,20.813 20.813,23.5 17.5,23.5 C14.185,23.5 11.5,20.813 11.5,17.5 C11.5,14.186 14.185,11.5 17.5,11.5 C20.813,11.5 23.5,14.186 23.5,17.5 L23.5,17.5 Z" id="Stroke-514"></path>
                <path d="M15,17.5 L20,17.5" id="Stroke-515" stroke-linecap="round"></path>
                <path d="M17.5,20 L17.5,15" id="Stroke-516" stroke-linecap="round"></path>
                <path d="M20.9912,9.4365 C21.3022,8.5195 21.4802,7.5955 21.4802,6.6805 C21.4802,-0.3355 12.0692,-1.7055 10.9902,5.3115 C9.9102,-1.7055 0.5002,-0.8765 0.5002,6.6805 C0.5002,12.7765 7.3252,18.5345 9.9652,20.5335" id="Stroke-517" stroke-linecap="round"></path>
            </g>
        </g>
    </g>
</svg>