<?xml version="1.0" encoding="utf-8"?>
<!-- Generator: Adobe Illustrator 21.0.0, SVG Export Plug-In . SVG Version: 6.00 Build 0)  -->
<svg version="1.1" id="Layer_1" xmlns="http://www.w3.org/2000/svg" xmlns:xlink="http://www.w3.org/1999/xlink" x="0px" y="0px"
	 viewBox="0 0 28.3 28.3" style="enable-background:new 0 0 28.3 28.3;" xml:space="preserve">
<style type="text/css">
	.st0{fill:none;stroke:#989EA4;stroke-linecap:round;stroke-linejoin:round;}
</style>
<title>Group 80</title>
<desc>Created with Sketch.</desc>
<g id="Page-1">
	<g id="Icons" transform="translate(-384.000000, -580.000000)">
		<g id="Group-80" transform="translate(384.000000, 580.000000)">
			<path id="Stroke-3082" class="st0" d="M15.7,17.7c0,0.8-0.7,1.5-1.5,1.5s-1.5-0.7-1.5-1.5c0-0.8,0.7-1.5,1.5-1.5
				S15.7,16.8,15.7,17.7L15.7,17.7z"/>
			<path id="Stroke-3083" class="st0" d="M15.2,16.6l5-4.9"/>
			<path id="Stroke-3084" class="st0" d="M4.7,18.2h2"/>
			<path id="Stroke-3085" class="st0" d="M23.7,18.2h-2"/>
			<path id="Stroke-3086" class="st0" d="M22.9,14l-1.8,0.8"/>
			<path id="Stroke-3087" class="st0" d="M17.8,8.9L17,10.7"/>
			<path id="Stroke-3088" class="st0" d="M14.2,8.2v2"/>
			<path id="Stroke-3089" class="st0" d="M10.5,8.9l0.8,1.8"/>
			<path id="Stroke-3090" class="st0" d="M7.5,11l1.4,1.4"/>
			<path id="Stroke-3091" class="st0" d="M5.4,14l1.8,0.8"/>
			<path id="Stroke-3092" class="st0" d="M14.2,6.2c-6.4,0-11.5,5.1-11.5,11.5v4.5h23v-4.5C25.7,11.3,20.5,6.2,14.2,6.2L14.2,6.2z"
				/>
		</g>
	</g>
</g>
</svg>
