<?xml version="1.0" encoding="UTF-8"?>
<svg width="25px" height="24px" viewBox="0 0 25 24" version="1.1" xmlns="http://www.w3.org/2000/svg" xmlns:xlink="http://www.w3.org/1999/xlink">
    <!-- Generator: Sketch 42 (36781) - http://www.bohemiancoding.com/sketch -->
    <title>Group 1107</title>
    <desc>Created with Sketch.</desc>
    <defs></defs>
    <g id="Page-1" stroke="none" stroke-width="1" fill="none" fill-rule="evenodd" stroke-linejoin="round">
        <g id="Icons" transform="translate(-983.000000, -1344.000000)" stroke="#000000">
            <g id="Group-1107" transform="translate(984.000000, 1344.000000)">
                <path d="M23.5,17.5 C23.5,20.814 20.813,23.5 17.5,23.5 C14.187,23.5 11.5,20.814 11.5,17.5 C11.5,14.186 14.187,11.5 17.5,11.5 C20.813,11.5 23.5,14.186 23.5,17.5 L23.5,17.5 Z" id="Stroke-518"></path>
                <path d="M15,17.5 L20,17.5" id="Stroke-519" stroke-linecap="round"></path>
                <path d="M20.8105,9.9316 C21.2315,8.8556 21.4795,7.7606 21.4795,6.6806 C21.4795,-0.3364 12.0695,-1.7054 10.9905,5.3116 C9.9105,-1.7054 0.4995,-0.8764 0.4995,6.6806 C0.4995,13.2556 8.4415,19.4386 10.5045,20.9336" id="Stroke-520" stroke-linecap="round"></path>
            </g>
        </g>
    </g>
</svg>