<?xml version="1.0" encoding="UTF-8"?>
<svg width="24px" height="24px" viewBox="0 0 24 24" version="1.1" xmlns="http://www.w3.org/2000/svg" xmlns:xlink="http://www.w3.org/1999/xlink">
    <!-- Generator: Sketch 42 (36781) - http://www.bohemiancoding.com/sketch -->
    <title>Group 1344</title>
    <desc>Created with Sketch.</desc>
    <defs></defs>
    <g id="Page-1" stroke="none" stroke-width="1" fill="none" fill-rule="evenodd" stroke-linecap="round" stroke-linejoin="round">
        <g id="Icons" transform="translate(-696.000000, -3360.000000)" stroke="#000000">
            <g id="Group-1344" transform="translate(696.000000, 3360.000000)">
                <polygon id="Stroke-4871" points="0.5 11.5 23.5 11.5 23.5 5.5 0.5 5.5"></polygon>
                <polyline id="Stroke-4872" points="0.5 5.5 6.5 0.5 17.5 0.5 23.5 5.5"></polyline>
                <path d="M14.5,8.5 C14.5,8.776 14.276,9 14,9 C13.724,9 13.5,8.776 13.5,8.5 C13.5,8.224 13.724,8 14,8 C14.276,8 14.5,8.224 14.5,8.5 L14.5,8.5 Z" id="Stroke-4873"></path>
                <path d="M17.5,8.5 C17.5,8.776 17.276,9 17,9 C16.724,9 16.5,8.776 16.5,8.5 C16.5,8.224 16.724,8 17,8 C17.276,8 17.5,8.224 17.5,8.5 L17.5,8.5 Z" id="Stroke-4874"></path>
                <path d="M20.5,8.5 C20.5,8.776 20.276,9 20,9 C19.724,9 19.5,8.776 19.5,8.5 C19.5,8.224 19.724,8 20,8 C20.276,8 20.5,8.224 20.5,8.5 L20.5,8.5 Z" id="Stroke-4875"></path>
                <path d="M4.5,8.5 C4.5,9.053 4.053,9.5 3.5,9.5 C2.948,9.5 2.5,9.053 2.5,8.5 C2.5,7.948 2.948,7.5 3.5,7.5 C4.053,7.5 4.5,7.948 4.5,8.5 L4.5,8.5 Z" id="Stroke-4876"></path>
                <polyline id="Stroke-4877" points="0.5 11.5 0.5 17.5 23.5 17.5 23.5 11.5"></polyline>
                <path d="M14.5,14.5 C14.5,14.776 14.276,15 14,15 C13.724,15 13.5,14.776 13.5,14.5 C13.5,14.224 13.724,14 14,14 C14.276,14 14.5,14.224 14.5,14.5 L14.5,14.5 Z" id="Stroke-4878"></path>
                <path d="M17.5,14.5 C17.5,14.776 17.276,15 17,15 C16.724,15 16.5,14.776 16.5,14.5 C16.5,14.224 16.724,14 17,14 C17.276,14 17.5,14.224 17.5,14.5 L17.5,14.5 Z" id="Stroke-4879"></path>
                <path d="M20.5,14.5 C20.5,14.776 20.276,15 20,15 C19.724,15 19.5,14.776 19.5,14.5 C19.5,14.224 19.724,14 20,14 C20.276,14 20.5,14.224 20.5,14.5 L20.5,14.5 Z" id="Stroke-4880"></path>
                <path d="M4.5,14.5 C4.5,15.053 4.053,15.5 3.5,15.5 C2.948,15.5 2.5,15.053 2.5,14.5 C2.5,13.948 2.948,13.5 3.5,13.5 C4.053,13.5 4.5,13.948 4.5,14.5 L4.5,14.5 Z" id="Stroke-4881"></path>
                <path d="M23.5,17.5 L23.5,21.5 C23.5,22.604 22.604,23.5 21.5,23.5 L2.5,23.5 C1.396,23.5 0.5,22.604 0.5,21.5 L0.5,17.5" id="Stroke-4882"></path>
                <path d="M14.5,20.5 C14.5,20.776 14.276,21 14,21 C13.724,21 13.5,20.776 13.5,20.5 C13.5,20.224 13.724,20 14,20 C14.276,20 14.5,20.224 14.5,20.5 L14.5,20.5 Z" id="Stroke-4883"></path>
                <path d="M17.5,20.5 C17.5,20.776 17.276,21 17,21 C16.724,21 16.5,20.776 16.5,20.5 C16.5,20.224 16.724,20 17,20 C17.276,20 17.5,20.224 17.5,20.5 L17.5,20.5 Z" id="Stroke-4884"></path>
                <path d="M20.5,20.5 C20.5,20.776 20.276,21 20,21 C19.724,21 19.5,20.776 19.5,20.5 C19.5,20.224 19.724,20 20,20 C20.276,20 20.5,20.224 20.5,20.5 L20.5,20.5 Z" id="Stroke-4885"></path>
                <path d="M4.5,20.5 C4.5,21.053 4.053,21.5 3.5,21.5 C2.948,21.5 2.5,21.053 2.5,20.5 C2.5,19.948 2.948,19.5 3.5,19.5 C4.053,19.5 4.5,19.948 4.5,20.5 L4.5,20.5 Z" id="Stroke-4886"></path>
            </g>
        </g>
    </g>
</svg>