<?xml version="1.0" encoding="UTF-8"?>
<svg width="24px" height="23px" viewBox="0 0 24 23" version="1.1" xmlns="http://www.w3.org/2000/svg" xmlns:xlink="http://www.w3.org/1999/xlink">
    <!-- Generator: Sketch 42 (36781) - http://www.bohemiancoding.com/sketch -->
    <title>Group 222</title>
    <desc>Created with Sketch.</desc>
    <defs></defs>
    <g id="Page-1" stroke="none" stroke-width="1" fill="none" fill-rule="evenodd" stroke-linecap="round" stroke-linejoin="round">
        <g id="Icons" transform="translate(-336.000000, -1633.000000)" stroke="#000000">
            <g id="Group-222" transform="translate(336.000000, 1633.000000)">
                <polyline id="Stroke-493" points="18.5 13.5 18.5 0.5 5.5 0.5 5.5 13.5"></polyline>
                <path d="M8.5,3.5 L9.5,3.5" id="Stroke-494"></path>
                <path d="M10.5,5.5 L15.5,5.5" id="Stroke-495"></path>
                <path d="M8.5,7.5 L15.5,7.5" id="Stroke-496"></path>
                <path d="M8.5,9.5 L15.5,9.5" id="Stroke-497"></path>
                <path d="M8.5,11.5 L15.5,11.5" id="Stroke-498"></path>
                <path d="M23.5,22.5 L0.5,22.5 L0.5,15.5 L8,15.5 L8,16.5 C8,17.6 8.9,18.5 10,18.5 L14.5,18.5 C15.6,18.5 16.5,17.6 16.5,16.5 L16.5,15.5 L23.5,15.5 L23.5,22.5 L23.5,22.5 Z" id="Stroke-499"></path>
                <polyline id="Stroke-500" points="0.5 15.5 4 9.5 5.5 9.5"></polyline>
                <polyline id="Stroke-501" points="18.5 9.5 20 9.5 23.5 15.5"></polyline>
            </g>
        </g>
    </g>
</svg>