<?xml version="1.0" encoding="UTF-8" standalone="no"?>
<!-- Created with Inkscape (http://www.inkscape.org/) -->

<svg
   xmlns:dc="http://purl.org/dc/elements/1.1/"
   xmlns:cc="http://creativecommons.org/ns#"
   xmlns:rdf="http://www.w3.org/1999/02/22-rdf-syntax-ns#"
   xmlns:svg="http://www.w3.org/2000/svg"
   xmlns="http://www.w3.org/2000/svg"
   xmlns:sodipodi="http://sodipodi.sourceforge.net/DTD/sodipodi-0.dtd"
   xmlns:inkscape="http://www.inkscape.org/namespaces/inkscape"
   width="115.54732mm"
   height="47.889584mm"
   viewBox="0 0 115.54732 47.889584"
   version="1.1"
   id="svg4605"
   inkscape:version="0.92.5 (2060ec1f9f, 2020-04-08)"
   sodipodi:docname="Press_image_override.svg">
  <defs
     id="defs4599" />
  <sodipodi:namedview
     id="base"
     pagecolor="#ffffff"
     bordercolor="#666666"
     borderopacity="1.0"
     inkscape:pageopacity="0.0"
     inkscape:pageshadow="2"
     inkscape:zoom="1.4"
     inkscape:cx="34.423413"
     inkscape:cy="19.903671"
     inkscape:document-units="mm"
     inkscape:current-layer="layer1"
     showgrid="false"
     inkscape:window-width="1848"
     inkscape:window-height="1136"
     inkscape:window-x="72"
     inkscape:window-y="27"
     inkscape:window-maximized="1" />
  <metadata
     id="metadata4602">
    <rdf:RDF>
      <cc:Work
         rdf:about="">
        <dc:format>image/svg+xml</dc:format>
        <dc:type
           rdf:resource="http://purl.org/dc/dcmitype/StillImage" />
        <dc:title />
      </cc:Work>
    </rdf:RDF>
  </metadata>
  <g
     inkscape:label="Layer 1"
     inkscape:groupmode="layer"
     id="layer1"
     transform="translate(-35.397471,-33.985266)">
    <rect
       style="fill:#eb6489;fill-opacity:1;stroke:#ffffff;stroke-width:0.26458332"
       id="rect4711"
       width="115.28274"
       height="47.625"
       x="35.529762"
       y="34.117558" />
    <path
       style="fill:#ffffff;fill-opacity:1;stroke:#ffffff;stroke-width:0.26458332"
       id="path5260"
       d="m 41.119932,42.048138 c -0.06759,1.996898 -0.07725,3.994923 -0.131632,5.992297 -0.121894,2.462776 -0.221901,4.92597 -0.253958,7.391654 -0.0035,0.919183 -0.0047,0.495734 0.0013,1.270354 0,0 -2.444885,1.238393 -2.444885,1.238393 v 0 c 0.04352,-0.797795 0.0213,-0.362796 0.06483,-1.305086 0.105312,-2.471383 0.19812,-4.943274 0.301421,-7.414742 0.04385,-1.968515 0.07196,-3.938047 -0.024,-5.905738 0,0 2.486888,-1.267132 2.486888,-1.267132 z"
       inkscape:connector-curvature="0" />
    <path
       style="fill:#ffffff;fill-opacity:1;stroke:#ffffff;stroke-width:0.26458332"
       id="path5262"
       d="m 40.780276,42.136493 c 0.671267,-0.02725 1.343541,-0.08837 2.015863,-0.04954 0.652074,0.03766 0.893006,0.09853 1.553766,0.210426 1.113909,0.219667 2.285632,0.371046 3.320809,0.871172 0.168524,0.08142 0.3258,0.184311 0.488701,0.276466 0.748726,0.483941 1.592969,0.996264 2.023457,1.814274 0.08454,0.160647 0.137075,0.336196 0.205613,0.504293 0.223853,0.768067 0.335814,1.586728 -0.01259,2.341941 -0.234014,0.507265 -0.403778,0.584843 -0.811718,0.95685 -1.002871,0.557061 -1.981168,1.160875 -3.008617,1.671185 -0.267933,0.133077 -1.345692,0.33392 -1.629791,0.382997 -0.667144,0.11525 -1.327676,0.186143 -2.003277,0.210222 -0.675939,0.03879 -1.322951,-0.158882 -1.971675,-0.315317 0,0 2.28432,-1.576723 2.28432,-1.576723 v 0 c 0.622136,0.156842 1.247333,0.311187 1.895536,0.274 0.924539,-0.04221 1.85546,-0.151136 2.750566,-0.397219 0.266708,-0.07332 0.9925,-0.445956 0.788194,-0.259493 -0.474546,0.433099 -1.086885,0.685385 -1.630326,1.028076 0.384416,-0.28492 0.618768,-0.394423 0.863336,-0.815777 0.392245,-0.675788 0.29927,-1.449184 0.09111,-2.161463 -0.06131,-0.150961 -0.108346,-0.308531 -0.183922,-0.452877 -0.408932,-0.781074 -1.220589,-1.264206 -1.943944,-1.708409 -1.152694,-0.613106 -2.428632,-0.903388 -3.713864,-1.097569 -1.204124,-0.164192 -2.4126,-0.226988 -3.618584,-0.02572 0,0 2.247043,-1.6818 2.247043,-1.6818 z"
       inkscape:connector-curvature="0" />
    <path
       style="fill:#ffffff;fill-opacity:1;stroke:#ffffff;stroke-width:0.26458332"
       id="path5264"
       d="m 48.539026,51.761135 c 0.49529,1.280607 0.868149,2.601024 1.24936,3.918408 0.190836,0.633759 0.348073,1.276043 0.535525,1.910707 0.0825,0.279334 0.145341,0.590706 0.299,0.842288 -0.804275,0.371753 -1.575967,0.824172 -2.41282,1.115258 -0.108805,0.03785 0.09879,-0.209491 0.128654,-0.320749 0.05885,-0.219276 0.09284,-0.444489 0.136519,-0.667282 0.159317,-0.812725 0.298675,-1.629193 0.451549,-2.443141 0.241297,-0.902848 0.322752,-2.029103 0.832514,-2.837495 0.0635,-0.100705 0.147505,-0.186923 0.221258,-0.280381 1.158571,-1.00769 2.603185,-2.02465 4.161626,-1.678861 0.320273,0.09299 0.169423,0.0336 0.454086,0.174233 0,0 -2.330218,1.548202 -2.330218,1.548202 v 0 c -0.251094,-0.09747 -0.116197,-0.05443 -0.406458,-0.123447 -0.297463,-0.03586 -0.573352,-0.03716 -0.868749,0.02982 -0.102864,0.02334 -0.391829,0.147805 -0.303149,0.0907 0.873996,-0.562782 2.995078,-1.752145 1.852166,-1.109758 -0.08531,0.07544 -0.182195,0.139531 -0.255918,0.226324 -0.57921,0.681908 -0.699659,1.952578 -0.934226,2.78388 -0.204671,1.028144 -0.378499,2.05436 -0.510886,3.09385 -0.01656,0.129947 0.0495,0.315468 -0.05926,0.388495 -0.816213,0.548101 -1.732135,0.930685 -2.598203,1.396027 -0.360749,-0.913321 -0.435068,-1.924654 -0.750935,-2.852732 -0.374005,-1.304693 -0.745316,-2.618558 -1.339808,-3.844087 0,0 2.448369,-1.36026 2.448369,-1.36026 z"
       inkscape:connector-curvature="0" />
    <path
       style="fill:#ffffff;fill-opacity:1;stroke:#ffffff;stroke-width:0.26458332"
       id="path5266"
       d="m 57.245649,54.498152 c 0.675124,0.07552 1.343197,0.195434 2.019128,0.266263 0.232587,-0.01873 0.506674,-0.02604 0.730491,-0.1042 0.118792,-0.04148 0.445672,-0.233575 0.336669,-0.17072 -0.681043,0.392702 -1.354402,0.800306 -2.053183,1.160499 -0.112551,0.05801 0.202822,-0.154463 0.286248,-0.249716 0.08105,-0.09255 0.135083,-0.205653 0.202623,-0.308478 0.03301,-0.119515 0.08476,-0.235376 0.09901,-0.358542 0.06286,-0.543142 -0.187534,-1.168167 -0.517073,-1.590204 -0.07838,-0.100383 -0.176726,-0.183441 -0.265086,-0.275161 -0.713925,-0.410694 -1.620268,-0.631815 -2.410166,-0.291537 -0.187317,0.08069 -0.351182,0.207524 -0.526775,0.311285 0.60879,-0.288607 1.153993,-0.823074 1.826374,-0.865825 0.295632,-0.01879 -0.315696,0.504299 -0.431128,0.777116 -0.130429,0.308258 -0.226174,0.631581 -0.302776,0.957413 -0.222409,0.945994 -0.207018,1.785144 -0.127794,2.739144 0.120417,0.578551 0.235194,1.200835 0.710758,1.60823 0.471623,0.404019 1.059807,0.453451 1.645817,0.519684 0.821193,0.01402 1.716302,0.05073 2.488134,-0.291317 0.206298,-0.09142 0.788715,-0.438422 0.587528,-0.336246 -0.585618,0.297419 -1.160872,0.614813 -1.741307,0.922219 0.543189,-0.442465 0.982863,-0.97173 1.294217,-1.596443 0,0 2.522268,-1.148734 2.522268,-1.148734 v 0 c -0.300046,0.675969 -0.749176,1.248305 -1.298874,1.745525 -0.964192,0.592016 -1.917565,1.202032 -2.892581,1.77605 -0.201751,0.118777 -0.414716,0.220689 -0.63477,0.300607 -0.806797,0.293013 -1.708314,0.235572 -2.546541,0.196273 -0.651174,-0.106397 -1.270222,-0.207486 -1.773073,-0.682797 -0.497076,-0.469847 -0.628394,-1.132303 -0.747276,-1.773761 -0.02114,-0.283091 -0.05941,-0.565418 -0.0634,-0.849268 -0.01405,-1.000945 0.114421,-2.033175 0.441825,-2.982097 0.09955,-0.288523 0.134972,-0.640234 0.366519,-0.839084 0.853721,-0.733168 1.868313,-1.254945 2.802472,-1.882418 0.190902,-0.08585 0.372457,-0.196625 0.572712,-0.257566 0.885095,-0.269349 1.860209,0.0033 2.599695,0.509066 0.642199,0.721889 1.023554,1.546257 0.846389,2.528713 -0.05835,0.124536 -0.102402,0.256833 -0.175043,0.373615 -0.58851,0.946095 -2.551726,1.645124 -2.959526,1.866035 -0.346461,0.187685 -0.773782,0.16778 -1.151369,0.165388 -0.685644,-0.08008 -1.366358,-0.197638 -2.055,-0.25165 0,0 2.293861,-1.617361 2.293861,-1.617361 z"
       inkscape:connector-curvature="0" />
    <path
       style="fill:#ffffff;fill-opacity:1;stroke:#ffffff;stroke-width:0.26458332"
       id="path5268"
       d="m 67.620302,49.619563 c -0.764193,0.598012 -1.658654,1.294046 -2.063789,2.205231 -0.05785,0.130098 -0.08156,0.272828 -0.122344,0.409242 0.0019,0.104851 -0.02508,0.214191 0.0053,0.314555 0.151087,0.498777 1.395679,0.724016 1.828241,0.821018 0.6794,0.162922 1.271366,0.553675 1.490523,1.250233 0.04693,0.149156 0.05852,0.307202 0.08778,0.460801 -0.01222,0.170884 0.0019,0.345741 -0.03665,0.512651 -0.214188,0.925645 -1.226958,1.901314 -1.895182,2.543038 -1.174567,0.757835 -2.433918,2.036624 -3.875759,1.609277 -0.164018,-0.04861 -0.351867,-0.08098 -0.471056,-0.203689 -0.11774,-0.121219 -0.123447,-0.314621 -0.185172,-0.471935 0,0 2.426589,-1.328944 2.426589,-1.328944 v 0 c 0.05833,0.369441 -0.03042,0.319781 0.469167,0.419489 0.160563,0.03205 0.610127,-0.07871 0.490099,0.03265 -0.655492,0.608148 -2.830518,1.7559 -1.37867,0.977003 0.596112,-0.527814 1.704443,-1.598813 1.956329,-2.354016 0.04707,-0.141129 0.04264,-0.294476 0.06396,-0.441714 -0.01947,-0.131363 -0.02122,-0.266605 -0.05838,-0.394094 -0.182888,-0.627264 -0.762995,-0.904576 -1.348853,-1.045951 -0.63345,-0.165322 -1.78462,-0.402828 -2.027114,-1.116052 -0.04287,-0.126093 -0.0182,-0.26574 -0.02729,-0.398608 0.03825,-0.158102 0.05724,-0.322146 0.114745,-0.474303 0.362558,-0.95935 1.230746,-1.633482 1.957612,-2.308611 0,0 2.599899,-1.017268 2.599899,-1.017268 z"
       inkscape:connector-curvature="0" />
    <path
       style="fill:#ffffff;fill-opacity:1;stroke:#ffffff;stroke-width:0.26458332"
       id="path5270"
       d="m 74.876342,49.949716 c -0.134089,0.106984 -0.274847,0.206102 -0.402265,0.32095 -0.696849,0.628105 -1.599591,1.56033 -2.102586,2.348045 -0.09478,0.148434 -0.160578,0.313494 -0.240868,0.470238 -0.02077,0.117997 -0.06713,0.23427 -0.06234,0.353986 0.01789,0.446813 0.90511,0.794081 1.249492,1.0013 0.741217,0.484746 1.079786,1.082106 1.258136,1.932609 0.06647,0.979697 -0.551013,1.728333 -1.261843,2.32174 -2.054119,1.209368 -2.348595,1.995938 -4.140539,1.324388 0,0 2.284135,-1.547722 2.284135,-1.547722 v 0 c 0.310481,0.094 0.479549,0.174979 0.813575,0.153979 0.859634,-0.05404 2.168919,-1.14169 -1.51579,1.087988 0.577956,-0.393528 1.191779,-0.958064 1.353474,-1.676469 0.02652,-0.117816 0.01738,-0.240903 0.02606,-0.361355 -0.135623,-0.78918 -0.452998,-1.300524 -1.141547,-1.729726 -0.508297,-0.29759 -1.331505,-0.601919 -1.405089,-1.286277 -0.01593,-0.148077 0.0329,-0.29604 0.04935,-0.444059 0.08243,-0.17558 0.146481,-0.361026 0.24728,-0.526745 0.626395,-1.029804 1.58084,-1.832039 2.37812,-2.720383 0,0 2.613244,-1.022487 2.613244,-1.022487 z"
       inkscape:connector-curvature="0" />
    <path
       style="fill:#ffffff;fill-opacity:1;stroke:#ffffff;stroke-width:0.26458332"
       id="path5272"
       d="m 82.537762,50.630425 c 0.139173,1.750002 0.153421,3.50661 0.279905,5.257189 0.06474,0.574291 0.07565,1.157986 0.200205,1.724081 0,0 -2.477473,1.308372 -2.477473,1.308372 v 0 c -0.05053,-0.59808 -0.07445,-1.198221 -0.112189,-1.797164 -0.07997,-1.734833 -0.0871,-3.479159 -0.345787,-5.200144 0,0 2.455339,-1.292334 2.455339,-1.292334 z"
       inkscape:connector-curvature="0" />
    <path
       style="fill:#ffffff;fill-opacity:1;stroke:#ffffff;stroke-width:0.26458332"
       id="path5274"
       d="m 82.297949,45.769148 c -0.188463,0.622909 -0.26125,1.272728 -0.312354,1.919174 -0.01408,0.25069 -0.0094,0.139904 -0.01598,0.332272 0,0 -2.518399,1.252918 -2.518399,1.252918 v 0 c 0.03094,-0.198437 0.01495,-0.08405 0.04408,-0.343675 0.06321,-0.655651 0.130676,-1.311698 0.268127,-1.956903 0,0 2.534539,-1.203786 2.534539,-1.203786 z"
       inkscape:connector-curvature="0" />
    <path
       style="fill:#ffffff;fill-opacity:1;stroke:#ffffff;stroke-width:0.26458332"
       id="path5280"
       d="m 87.253423,50.629941 c 0.05477,1.362975 0.06556,2.727285 0.111942,4.090599 0.0069,0.178006 0.0079,0.356335 0.02058,0.534024 0.0076,0.106479 0.01458,0.214082 0.0402,0.317714 0.0031,0.01254 0.05048,-0.0037 0.03876,0.0019 -0.777555,0.362625 -1.520743,0.81746 -2.340213,1.071544 -0.159597,0.04948 0.179001,-0.282329 0.262202,-0.427233 0.129273,-0.225139 0.250029,-0.455062 0.375044,-0.682591 0.563626,-0.997042 1.115881,-2.000353 1.684888,-2.994363 0.191519,-0.334568 0.801145,-1.408131 1.05545,-1.764906 0.128995,-0.180972 0.28852,-0.338108 0.432781,-0.507164 0.93654,-0.468855 1.797664,-1.136618 2.809624,-1.406562 0.23581,-0.06291 0.379092,0.317394 0.515988,0.519438 0.358957,0.529783 0.639328,1.444871 0.813932,2.025592 0.234442,0.779738 0.430625,1.570492 0.653238,2.353688 0.07271,0.209907 0.323387,1.067186 0.543094,1.314614 0.0565,0.06363 0.165571,0.108458 0.243917,0.07526 0.104134,-0.04412 0.314256,-0.308804 0.209095,-0.26719 -0.697892,0.276159 -1.292064,0.821613 -2.024486,0.985547 -0.235768,0.05277 0.253116,-0.4116 0.379674,-0.6174 0.379564,-0.706475 0.741101,-1.422583 1.148297,-2.113897 0.108038,-0.18342 0.343302,-0.648361 0.591016,-0.764627 0.911511,-0.427831 1.856192,-0.781092 2.78429,-1.171639 0.145777,0.200473 0.3097,0.388933 0.437335,0.601419 0.566793,0.943605 0.938191,2.012953 1.345379,3.029286 0.323454,0.807334 0.454041,1.119257 0.77375,1.894957 0.32952,0.59269 0.46968,1.328814 0.93369,1.841042 0,0 -2.408448,1.42162 -2.408448,1.42162 v 0 c -0.357624,-0.619512 -0.566877,-1.311143 -0.857824,-1.9621 -0.378584,-1.01514 -0.747921,-2.039768 -1.185204,-3.031551 -0.201797,-0.457692 -0.628951,-1.357249 -0.934108,-1.798939 -0.111869,-0.16192 -0.263412,-0.292481 -0.395116,-0.438719 0.69296,-0.466669 1.396291,-0.918289 2.078876,-1.400003 0.109866,-0.07753 -0.262236,0.0914 -0.358148,0.185653 -0.141959,0.139501 -0.227853,0.326562 -0.334256,0.494763 -0.428408,0.677225 -0.79738,1.38947 -1.145955,2.110319 -0.804971,1.516338 -0.303967,0.806802 -2.993647,2.472873 -0.107574,0.06664 -0.256235,0.07677 -0.377454,0.04046 -0.571897,-0.171312 -0.571106,-1.268095 -0.767025,-1.644332 -0.300466,-1.147072 -0.552243,-2.340608 -1.038378,-3.428387 -0.120253,-0.269081 -0.251158,-0.538728 -0.43194,-0.771498 -0.104384,-0.134398 -0.523172,-0.184277 -0.406803,-0.308441 0.523897,-0.558985 1.268884,-0.85888 1.903326,-1.288319 -0.165,0.16012 -0.351147,0.301 -0.494999,0.480358 -0.198842,0.247926 -0.358984,0.524772 -0.527335,0.794333 -0.795102,1.273098 -1.482553,2.609908 -2.193179,3.930607 -0.111231,0.22094 -0.227389,0.439468 -0.333695,0.662818 -0.07171,0.150667 -0.06173,0.365673 -0.200168,0.458828 -2.624175,1.765763 -2.761356,2.284272 -2.74216,0.408164 -0.0055,-1.340029 -0.01966,-2.685851 -0.178298,-4.017861 0,0 2.482469,-1.309579 2.482469,-1.309579 z"
       inkscape:connector-curvature="0" />
    <path
       style="fill:#ffffff;fill-opacity:1;stroke:#ffffff;stroke-width:0.26458332"
       id="path5282"
       d="m 109.1058,55.755071 c -0.12944,-0.467543 -0.32165,-1.216835 -0.88409,-1.343671 -0.14119,-0.03184 -0.28927,-0.01116 -0.4339,-0.01675 -1.07459,0.147823 -2.06161,0.64597 -3.0019,1.163241 -0.26231,0.144298 -1.04225,0.588502 -0.77406,0.455464 0.56463,-0.28009 1.10965,-0.598106 1.66448,-0.897162 -0.45095,0.371099 -1.01026,0.84016 -0.79565,1.501105 0.039,0.120179 0.0928,0.242057 0.17982,0.333698 0.10787,0.113628 0.25888,0.176541 0.38831,0.264811 0.19091,0.06504 0.37457,0.15753 0.57272,0.195109 0.53266,0.101015 1.18392,0.06183 1.71197,0.01037 0.54775,-0.05337 1.73131,-0.231484 2.25675,-0.348417 0.38112,-0.08482 0.75387,-0.203623 1.1308,-0.305435 -0.69504,0.486302 2.5705,-1.13557 1.93107,-0.844526 -0.5223,0.237731 -0.97815,0.697487 -1.54959,0.750044 -0.28784,0.02647 0.39735,-0.422638 0.56328,-0.659332 0.37673,-0.537403 0.44136,-0.812712 0.66323,-1.402506 0.0759,-0.342058 0.16932,-0.621119 0.14777,-0.970277 -0.003,-0.05552 -0.0245,-0.329758 -0.18461,-0.294529 -0.0712,0.01566 -0.2479,0.153453 -0.1834,0.119399 0.69413,-0.366453 1.382,-0.744651 2.073,-1.116978 -1.07547,0.856747 -1.52947,2.166392 -1.73971,3.481025 -0.0722,1.053888 0.42946,1.968658 1.05012,2.778466 0,0 -2.38714,1.411134 -2.38714,1.411134 v 0 c -0.60927,-0.890529 -1.15096,-1.877878 -1.11153,-2.988715 0.19916,-1.345562 0.63515,-2.689537 1.61275,-3.676936 0.91379,-0.517892 1.79725,-1.09339 2.74137,-1.553678 0.0969,-0.04724 0.22225,0.01167 0.31734,0.06246 0.53636,0.286526 0.18332,1.204463 0.11555,1.606135 -0.22803,0.638029 -0.6377,1.798174 -1.19812,2.21098 -1.583,1.166024 -3.11071,2.104393 -4.94758,2.686383 -1.47344,0.37039 -3.76649,0.919795 -5.27058,0.566267 -0.2199,-0.05169 -0.42048,-0.165256 -0.63072,-0.247883 -0.15562,-0.119827 -0.33572,-0.21327 -0.46686,-0.359484 -0.1049,-0.116962 -0.17267,-0.265774 -0.22637,-0.413427 -0.29526,-0.811946 0.14683,-1.29911 0.72409,-1.806718 1.46311,-0.887484 4.32618,-2.855736 6.23393,-3.239376 0.20837,-0.0419 0.42317,-0.04024 0.63475,-0.06036 0.17065,0.03324 0.34956,0.03758 0.51193,0.09971 0.61709,0.236125 0.82175,1.000868 1.04206,1.546952 0,0 -2.48128,1.303391 -2.48128,1.303391 z"
       inkscape:connector-curvature="0" />
    <path
       style="fill:#ffffff;fill-opacity:1;stroke:#ffffff;stroke-width:0.26458332"
       id="path5284"
       d="m 121.13015,53.013001 c -0.45561,-0.460481 -1.04317,-0.911365 -1.70822,-1.000326 -0.166,-0.0222 -0.63976,0.115996 -0.50203,0.02072 0.59397,-0.410927 1.28066,-0.668256 1.92098,-1.002385 -0.13893,0.175789 -0.30883,0.331033 -0.41681,0.527368 -0.60848,1.106397 -0.69611,2.64287 -0.58806,3.873875 0.024,0.273534 0.0793,0.543407 0.11901,0.815113 0.0688,0.209782 0.10158,0.435014 0.20633,0.629351 0.34178,0.634076 0.87206,0.602908 1.45503,0.33578 0.24973,-0.114432 0.96449,-0.52193 0.7102,-0.418029 -0.53941,0.220401 -1.04651,0.512826 -1.56977,0.769239 0.67668,-0.668742 1.58815,-1.493009 1.86832,-2.445443 0.82331,-0.293129 1.59605,-0.890217 2.46991,-0.87939 0.30997,0.0038 -0.13625,0.604814 -0.20323,0.907473 -0.0947,0.427771 -0.18905,0.855612 -0.28176,1.283814 -0.36517,1.686504 -0.68803,3.376851 -0.99236,5.075314 -0.26453,1.573758 -0.53961,3.145885 -0.77058,4.725064 -0.13444,0.91921 -0.23802,1.830991 -0.4408,2.737676 -0.54315,1.22233 -0.3616,1.028612 -2.92314,1.767636 -0.2345,0.06766 -0.40675,-0.270849 -0.5981,-0.422349 -0.73546,-0.582282 -1.39802,-1.258157 -2.06041,-1.91965 -0.72647,-0.724424 -1.53045,-1.423482 -1.8893,-2.41018 5.3e-4,-0.09241 -0.0285,-0.189767 10e-4,-0.277227 0.0847,-0.248095 0.28864,-0.383099 0.50368,-0.502455 0.98608,-0.547306 1.98337,-1.074179 2.97506,-1.61127 0,0 -2.12969,1.685994 -2.12969,1.685994 v 0 c 0.58002,-0.356611 1.16689,-0.702313 1.74006,-1.069832 0.10042,-0.06439 -0.21206,0.109434 -0.32033,0.159499 -0.0848,0.0392 -0.18691,0.04817 -0.2585,0.108156 -0.0459,0.03844 -0.0457,0.110622 -0.0686,0.165933 0.25762,0.964147 1.08394,1.641536 1.72671,2.355033 0.6394,0.649449 1.28817,1.342742 2.06083,1.839611 0.17182,0.110495 0.68826,0.112278 0.55259,0.265009 -0.53716,0.604716 -1.33581,0.912408 -2.00372,1.368613 0.0795,-0.110686 0.15898,-0.221372 0.23848,-0.33206 0.0661,-0.21381 0.14647,-0.423738 0.19842,-0.641435 0.10844,-0.454543 0.31029,-1.740088 0.37616,-2.131488 0.26715,-1.587453 0.55929,-3.17036 0.82846,-4.757471 0.29345,-1.681927 0.60019,-3.360549 0.90756,-5.039894 0.0762,-0.416346 0.1515,-0.832903 0.22003,-1.250582 0.0463,-0.28226 -0.088,-0.657487 0.12447,-0.849024 0.74099,-0.668105 1.70128,-1.042752 2.55192,-1.564127 -0.22461,0.991457 -1.25472,1.962012 -1.92178,2.664243 -1.00187,0.636265 -1.98921,1.296003 -3.0056,1.908797 -0.24717,0.149021 -0.50461,0.290515 -0.78086,0.374102 -0.23088,0.06986 -0.48024,0.112456 -0.71923,0.07979 -0.7509,-0.102645 -1.009,-0.804132 -1.15527,-1.431988 -0.20124,-1.58509 -0.26259,-3.342926 0.36072,-4.853782 0.0909,-0.220318 0.23403,-0.41526 0.35104,-0.622892 0.9515,-0.53186 1.86241,-1.143958 2.85451,-1.595586 0.16439,-0.07484 0.36355,0.0098 0.53951,0.05055 0.70259,0.162901 1.31842,0.62017 1.84381,1.091443 0,0 -2.397,1.443683 -2.397,1.443683 z"
       inkscape:connector-curvature="0" />
    <path
       style="fill:#ffffff;fill-opacity:1;stroke:#ffffff;stroke-width:0.26458332"
       id="path5286"
       d="m 130.95542,54.097038 c 0.18947,0.140936 0.3702,0.291841 0.59979,0.370496 0.54556,0.186907 1.27811,0.217356 1.81967,0.0026 0.19987,-0.07927 0.36627,-0.225319 0.54941,-0.337976 -0.64653,0.310475 -1.2437,0.757812 -1.93958,0.931431 -0.16323,0.04073 0.14454,-0.315333 0.14447,-0.483563 -6e-5,-0.175593 -0.0484,-0.359727 -0.14484,-0.506481 -0.50709,-0.7718 -1.57023,-0.88437 -2.37528,-1.047157 -0.99591,-0.02912 -1.30382,-0.10854 -2.28373,0.146417 -0.35313,0.09188 -1.30378,0.619319 -1.02526,0.383591 2.86259,-2.42274 1.05371,-0.281123 0.93024,0.03629 -0.10787,0.277283 -0.0953,0.587369 -0.14295,0.881054 0.0948,0.321554 0.14218,0.661149 0.28456,0.964666 0.69605,1.483794 2.27672,2.535523 3.76573,3.092585 0.39243,0.146817 0.80776,0.223072 1.21164,0.334608 1.2649,0.232478 2.55718,0.162552 3.76366,-0.297413 0.17026,-0.06491 0.65221,-0.32375 0.49568,-0.230463 -0.67656,0.403241 -1.37179,0.774293 -2.05768,1.161439 0,0 2.58539,-0.997421 2.58539,-0.997421 v 0 c -0.89301,0.511402 -1.77453,1.043408 -2.67903,1.534208 -0.15329,0.08317 -0.32269,0.133778 -0.48938,0.185041 -1.23055,0.378431 -2.51942,0.399397 -3.77379,0.11911 -0.40999,-0.125068 -0.8317,-0.216707 -1.22996,-0.375205 -1.54988,-0.616823 -3.15351,-1.719924 -3.91385,-3.25224 -0.1654,-0.333349 -0.23826,-0.705091 -0.3574,-1.057638 0.0329,-0.326191 0.004,-0.664792 0.0988,-0.978574 0.48304,-1.595234 2.19795,-2.007301 3.5927,-2.743481 0.98717,-0.521052 2.32135,-0.506629 3.39367,-0.413877 0.36745,0.08231 0.74528,0.127397 1.10237,0.24692 0.75358,0.252227 1.62646,0.73098 1.71372,1.624901 0.0198,0.203015 0.0572,0.469906 -0.0962,0.604322 -0.81818,0.716806 -1.79638,1.227151 -2.69457,1.840727 -0.20046,0.08929 -0.38988,0.209355 -0.60138,0.26788 -0.89953,0.248912 -1.90935,0.01368 -2.63973,-0.540252 0,0 2.39312,-1.466506 2.39312,-1.466506 z"
       inkscape:connector-curvature="0" />
    <path
       style="fill:#ffffff;fill-opacity:1;stroke:#ffffff;stroke-width:0.26458332"
       id="path5288"
       d="m 52.304926,65.79481 c -1.319792,-0.645274 -2.837596,-0.403614 -4.218943,-0.115578 -0.563735,0.16886 -0.802947,0.213175 -1.32143,0.468712 -0.175249,0.08637 -0.678701,0.387292 -0.506695,0.294629 3.657933,-1.9706 2.115235,-1.37568 1.584065,-0.744513 -0.08431,0.100184 -0.139041,0.221919 -0.20856,0.332877 -0.02786,0.131773 -0.0795,0.260691 -0.08359,0.395317 -0.02326,0.766167 0.555789,1.490765 1.200793,1.839502 0.246523,0.133289 0.52311,0.201285 0.784664,0.301927 0.335335,0.047 0.66812,0.118782 1.006001,0.140991 1.380347,0.09074 3.008556,-0.158769 4.329994,-0.56415 0.299074,-0.09175 0.587684,-0.214664 0.881528,-0.321995 2.052799,-1.090406 -0.567619,0.389329 -0.891244,0.490723 -0.232513,0.07285 0.358868,-0.332047 0.512802,-0.52092 0.498076,-0.611113 0.588354,-1.016707 0.690515,-1.767261 -0.02477,-0.585398 -0.173273,-1.293095 -0.800253,-1.531591 -0.304022,-0.115644 -0.571654,-0.03629 -0.878078,0.0049 0,0 2.212057,-1.629201 2.212057,-1.629201 v 0 c 0.420309,-0.0011 0.610473,-0.05494 0.994838,0.148002 0.670669,0.354111 0.87366,1.102249 0.91218,1.798387 -0.05306,0.587824 -0.01923,0.753326 -0.270065,1.306504 -0.823584,1.816338 -2.889697,2.531211 -4.58933,3.341407 -0.295376,0.09759 -0.586333,0.209741 -0.886127,0.292777 -1.350737,0.374134 -2.988794,0.600655 -4.386532,0.477809 -0.358423,-0.0315 -0.710142,-0.116345 -1.065215,-0.174517 -0.2818,-0.11676 -0.579848,-0.200194 -0.8454,-0.350282 -0.729834,-0.41249 -1.331904,-1.211363 -1.386974,-2.065771 -0.01032,-0.160224 0.02633,-0.320032 0.03949,-0.480049 0.06128,-0.136861 0.100841,-0.285697 0.183843,-0.410586 0.08863,-0.133347 0.190564,-0.266398 0.324456,-0.354198 0.899745,-0.590018 1.835018,-1.124204 2.762279,-1.669957 0.568553,-0.334627 1.203595,-0.525471 1.843003,-0.669123 1.461389,-0.253453 3.005421,-0.429094 4.404397,0.187949 0,0 -2.328473,1.547257 -2.328473,1.547257 z"
       inkscape:connector-curvature="0" />
    <path
       style="fill:#ffffff;fill-opacity:1;stroke:#ffffff;stroke-width:0.26458332"
       id="path5296"
       d="m 61.966162,64.348904 c 0.627933,1.31077 1.102461,2.692982 1.59889,4.057997 0.243462,0.596265 0.435766,1.239806 0.794216,1.783754 0.05438,0.08252 0.111353,0.170974 0.195374,0.22301 0.05462,0.03383 0.247822,-0.01492 0.19201,0.01691 -0.705937,0.402603 -1.446707,0.740796 -2.170059,1.111194 0.119457,-0.122531 0.253717,-0.232198 0.358367,-0.367593 0.25553,-0.330608 0.617522,-0.990823 0.804865,-1.342496 0.524727,-0.985002 0.991963,-1.999922 1.475923,-3.00518 0.145719,-0.315794 0.291436,-0.631584 0.437153,-0.947378 0,0 2.411409,-1.098878 2.411409,-1.098878 v 0 c -0.150611,0.319313 -0.301222,0.638622 -0.451834,0.957932 -0.783079,1.616374 -1.467615,3.293115 -2.444131,4.806564 -0.912704,0.481552 -1.790081,1.037034 -2.738112,1.444656 -0.161396,0.06939 -0.43213,-0.389233 -0.459033,-0.437819 -0.321834,-0.581181 -0.50573,-1.233281 -0.746795,-1.847755 -0.482346,-1.338415 -0.948438,-2.710031 -1.67936,-3.936214 0,0 2.421117,-1.418701 2.421117,-1.418701 z"
       inkscape:connector-curvature="0" />
    <path
       style="fill:#ffffff;fill-opacity:1;stroke:#ffffff;stroke-width:0.26458332"
       id="path5298"
       d="m 71.656624,66.816247 c 0.939829,0.282493 1.879497,0.57417 2.855288,0.700482 0.111586,-0.01172 0.228759,0.0016 0.334754,-0.03517 0.08867,-0.03078 0.314066,-0.204679 0.230889,-0.161187 -0.747708,0.390967 -1.447478,0.879928 -2.226284,1.204553 -0.09431,0.03931 0.05921,-0.198742 0.05837,-0.300911 -0.0024,-0.30271 -0.123695,-0.630425 -0.207185,-0.912614 -0.198209,-0.529995 -0.477983,-1.077399 -1.076287,-1.230098 -0.365067,-0.09317 -0.640165,-0.02839 -1.010627,0.009 -0.718833,0.164102 -1.418148,0.4387 -2.071722,0.779721 -0.236294,0.123294 -0.926182,0.527148 -0.688525,0.406506 1.719445,-0.872839 2.236258,-1.394124 1.200854,-0.481573 -0.422122,0.513972 -0.917017,1.125225 -0.819753,1.842651 0.04751,0.350483 0.194662,0.551455 0.360076,0.85584 0.700051,1.016555 1.696646,1.468815 2.849857,1.779217 0.701328,0.08653 1.496229,0.348953 2.201735,0.126579 0.095,-0.02995 0.179356,-0.08673 0.269034,-0.13009 -0.723022,0.405616 -1.446041,0.811231 -2.169062,1.216847 0,0 2.597901,-1.010904 2.597901,-1.010904 v 0 c -0.873649,0.502029 -1.747298,1.004054 -2.620947,1.50608 -0.840703,0.213207 -1.70498,0.01942 -2.536002,-0.163425 -1.22891,-0.377944 -2.207601,-0.881097 -2.972437,-1.956882 -0.194088,-0.349361 -0.354206,-0.570381 -0.429784,-0.971074 -0.14936,-0.79184 0.310883,-1.46128 0.755396,-2.065263 1.291039,-1.245937 0.393491,-0.449837 3.408008,-2.242098 0.88465,-0.525963 1.848638,-0.94134 2.867324,-1.112546 0.458843,-0.01109 0.680746,-0.0629 1.114253,0.09705 0.636619,0.234895 0.955545,0.828583 1.176676,1.425329 0.04905,0.149635 0.430157,1.297538 0.29532,1.409597 -0.769541,0.639535 -1.656218,1.124522 -2.508983,1.647957 -0.08413,0.05164 -0.189645,0.06067 -0.288018,0.06887 -0.1169,0.0097 -0.234378,-0.0104 -0.351567,-0.01558 -0.977898,-0.18097 -1.926209,-0.483187 -2.897743,-0.692078 0,0 2.299194,-1.594835 2.299194,-1.594835 z"
       inkscape:connector-curvature="0" />
    <path
       style="fill:#ffffff;fill-opacity:1;stroke:#ffffff;stroke-width:0.26458332"
       id="path5300"
       d="m 79.671732,64.37224 c -0.05092,1.732336 -0.07853,3.46515 -0.130678,5.197695 -0.05372,1.257856 0.154022,2.499749 0.593947,3.675856 0.04342,0.06393 0.05412,0.205111 0.130242,0.191789 0.07047,-0.01233 0.06619,-0.24215 1.64e-4,-0.214609 -0.788784,0.329041 -1.462559,0.927685 -2.283056,1.166913 -0.170021,0.04957 0.05924,-0.349316 0.0815,-0.525013 0.06304,-0.497512 0.105458,-0.997418 0.158584,-1.496086 0.155268,-1.460191 0.380957,-2.921537 0.935278,-4.288047 0.693817,-1.22415 2.120072,-2.030783 3.506084,-2.23353 0.304149,-0.04449 0.510283,-0.04763 0.817324,-0.06326 0.538697,-0.04757 0.274598,-0.01357 0.792528,-0.100155 0,0 -2.214216,1.658112 -2.214216,1.658112 v 0 c -0.526219,0.06533 -0.258985,0.03771 -0.801799,0.08196 -0.283858,0.02643 -0.513516,0.03604 -0.790604,0.107908 -0.11961,0.03102 -0.453872,0.188545 -0.350414,0.12097 0.670036,-0.437655 1.372063,-0.824264 2.058096,-1.236395 -0.09148,0.06835 -0.193829,0.124182 -0.274455,0.205057 -0.09414,0.09443 -0.163404,0.210738 -0.245108,0.316106 -0.644506,1.321789 -0.875487,2.777963 -1.018913,4.231293 -0.07355,0.801521 -0.07165,0.709158 -0.118059,1.477092 -0.01095,0.181166 0.103642,0.419407 -0.02858,0.54374 -0.02016,0.01894 -1.992125,2.400456 -2.640528,1.642406 -0.06123,-0.07158 -0.08379,-0.168746 -0.125678,-0.253119 -0.404227,-1.228373 -0.662529,-2.499619 -0.575495,-3.800538 0.07284,-1.712574 0.141357,-3.427561 0.04049,-5.140817 0,0 2.483348,-1.265328 2.483348,-1.265328 z"
       inkscape:connector-curvature="0" />
    <path
       style="fill:#ffffff;fill-opacity:1;stroke:#ffffff;stroke-width:0.26458332"
       id="path5302"
       d="m 86.660751,65.364198 c -0.106667,1.880505 -0.373383,3.745814 -0.598631,5.614265 -0.02908,0.33591 -0.06654,0.6712 -0.08723,1.007729 -0.01635,0.265898 -0.02643,0.532455 -0.02384,0.798843 0.0016,0.160063 0.0088,0.321133 0.03623,0.47884 0.0078,0.04511 0.108495,0.09867 0.06773,0.119507 -2.646992,1.353138 -2.747034,1.801683 -2.157648,0.606468 0.471474,-1.187088 0.786736,-2.426867 1.169696,-3.643294 0.08062,-0.256077 0.151932,-0.515853 0.252156,-0.764913 0.0824,-0.204761 0.196223,-0.395428 0.294336,-0.593143 1.893313,-2.18648 3.501199,-2.116643 5.857941,-2.379641 0,0 -2.186795,1.624697 -2.186795,1.624697 v 0 c -0.638513,0.06539 -1.301048,0.09049 -1.929733,0.226359 -0.211198,0.04564 -0.792152,0.313272 -0.623099,0.178708 0.407228,-0.324152 2.768201,-1.801154 1.362962,-0.761905 -0.112459,0.187799 -0.24537,0.364776 -0.337373,0.563399 -0.11443,0.247041 -0.192019,0.509648 -0.279141,0.767588 -0.40422,1.196742 -0.708475,2.424337 -1.091351,3.627694 -0.411392,1.404379 -0.08276,0.726186 -2.781948,1.908664 -0.07119,0.03119 -0.05488,-0.147582 -0.0609,-0.22507 -0.02365,-0.30471 0.03647,-1.130075 0.05377,-1.348407 0.02699,-0.340765 0.06359,-0.680699 0.09539,-1.021046 0.225258,-1.833721 0.495073,-3.67231 0.491223,-5.523624 0,0 2.476264,-1.261718 2.476264,-1.261718 z"
       inkscape:connector-curvature="0" />
    <path
       style="fill:#ffffff;fill-opacity:1;stroke:#ffffff;stroke-width:0.26458332"
       id="path5304"
       d="m 96.513244,66.341653 c 0.06301,1.585622 -0.132871,3.172323 -0.273103,4.749967 -0.130032,1.240224 -0.05486,0.658098 -0.216273,1.747541 0,0 -2.425089,1.183293 -2.425089,1.183293 v 0 c 0.219197,-1.09066 0.121269,-0.507542 0.278561,-1.751845 0.122106,-1.533309 0.303999,-3.089781 0.154628,-4.625565 0,0 2.481276,-1.303391 2.481276,-1.303391 z"
       inkscape:connector-curvature="0" />
    <path
       style="fill:#ffffff;fill-opacity:1;stroke:#ffffff;stroke-width:0.26458332"
       id="path5306"
       d="m 93.163143,61.879791 c 0.425468,0.587225 0.89427,1.145069 1.467831,1.591699 0.371102,0.285401 0.182192,0.137361 0.566312,0.444656 0,0 -2.343155,1.474526 -2.343155,1.474526 v 0 c -0.390105,-0.301524 -0.198266,-0.153998 -0.575435,-0.442682 -0.57409,-0.476772 -1.027136,-1.067332 -1.519351,-1.624963 0,0 2.403798,-1.443236 2.403798,-1.443236 z"
       inkscape:connector-curvature="0" />
    <path
       style="fill:#ffffff;fill-opacity:1;stroke:#ffffff;stroke-width:0.26458332"
       id="path5308"
       d="m 101.49377,67.93799 c -0.53863,-0.0088 -1.05542,0.22587 -1.526078,0.46685 -0.154335,0.07902 -0.605674,0.337875 -0.454893,0.252267 0.651901,-0.370121 1.305511,-0.737214 1.958261,-1.105821 -0.71667,0.466307 -0.90766,0.987115 -0.97593,1.80944 0.0432,0.588283 0.19029,1.69295 0.62944,2.130634 0.0855,0.08525 0.20225,0.132051 0.30338,0.198078 0.5042,0.212003 1.02471,0.256344 1.55554,0.09383 0.21974,-0.06727 0.82748,-0.397505 0.63011,-0.279781 -2.23009,1.330193 -1.98412,1.204085 -1.03078,0.281369 1.23844,-1.5811 1.84987,-3.495294 2.21426,-5.442225 0.21764,-1.393738 0.24401,-2.824658 -0.18135,-4.179401 -0.012,-0.02826 -0.17881,-0.463833 -0.25584,-0.521991 -0.0239,-0.01807 -0.0986,0.06734 -0.0716,0.0544 0.76606,-0.366477 1.47553,-0.876397 2.2903,-1.115811 0.16965,-0.04985 -0.1411,0.325887 -0.18499,0.497179 -0.0718,0.280072 -0.10719,0.568213 -0.16079,0.85232 -0.29012,2.280595 -0.32665,4.584462 -0.34294,6.880503 0.004,1.317681 0.0695,2.63057 0.27004,3.932997 0.0254,0.222282 0.12255,0.40405 0.22992,0.593479 0,0 -2.43072,1.395052 -2.43072,1.395052 v 0 c -0.11685,-0.223117 -0.22549,-0.441994 -0.24873,-0.698777 -0.15546,-1.335908 -0.18877,-2.67901 -0.18289,-4.023532 0.0527,-2.300653 0.0942,-4.603856 0.29711,-6.897444 0.0318,-0.286049 0.0542,-0.573307 0.0954,-0.858152 0.0268,-0.185397 -0.0383,-0.435092 0.10858,-0.551389 0.81295,-0.643795 2.1269,-2.276925 2.75246,-1.449867 0.0837,0.110617 0.21365,0.497478 0.24867,0.59173 0.3977,1.408078 0.38381,2.882646 0.17978,4.324689 -0.36375,1.980975 -0.99851,3.915698 -2.1546,5.58669 -1.29914,1.448985 -0.60265,0.807405 -3.57387,2.422308 -0.75199,0.408718 -1.639614,0.355351 -2.385472,-0.0079 -0.120909,-0.09513 -0.259337,-0.171477 -0.362733,-0.285403 -0.455539,-0.501936 -0.606121,-1.637533 -0.703152,-2.283556 0.02016,-0.860173 0.145439,-1.512641 0.876306,-2.050819 0.914971,-0.537144 1.825231,-1.082395 2.744911,-1.611432 0.64245,-0.369562 1.40546,-0.695656 2.15787,-0.586002 0,0 -2.31502,1.585455 -2.31502,1.585455 z"
       inkscape:connector-curvature="0" />
    <path
       style="fill:#ffffff;fill-opacity:1;stroke:#ffffff;stroke-width:0.26458332"
       id="path5312"
       d="m 109.27694,69.04883 c 1.64344,0.265264 3.30591,0.399524 4.96926,0.439171 0.5094,-0.02159 0.73097,0.0048 1.20092,-0.13249 0.1258,-0.03674 0.47592,-0.217958 0.36242,-0.152434 -0.71827,0.395735 -1.43655,0.791469 -2.15482,1.187204 0.0328,-0.05584 0.0915,-0.103116 0.0985,-0.167518 0.009,-0.08099 -0.0362,-0.158859 -0.0543,-0.238289 -0.51705,-0.827527 -1.39882,-1.340612 -2.23957,-1.79092 -0.6176,-0.272592 -1.3416,-0.595178 -2.00426,-0.259739 -0.11555,0.05849 -0.21274,0.147759 -0.31911,0.221636 0.68679,-0.363651 1.33763,-0.805354 2.06037,-1.090956 0.13773,-0.05442 -0.17416,0.240914 -0.24216,0.372467 -0.21595,0.417798 -0.35673,0.942396 -0.37313,1.412624 -0.007,0.191013 0.0194,0.38177 0.0291,0.572656 0.22391,1.328957 0.95286,2.532782 1.87235,3.505205 0.15794,0.167034 0.33551,0.314349 0.50326,0.471522 1.03513,0.821936 2.34738,0.837213 3.60905,0.799701 0.87435,-0.08655 0.44758,-0.02736 1.28081,-0.173893 0,0 -2.17946,1.636356 -2.17946,1.636356 v 0 c -0.84148,0.118523 -0.4097,0.07123 -1.29575,0.138139 -1.32527,0.01045 -2.67761,-0.06451 -3.72448,-0.980086 -1.14751,-1.152334 -2.14167,-2.52173 -2.48843,-4.13799 -0.0221,-0.204417 -0.0632,-0.407668 -0.0662,-0.613246 -0.007,-0.496332 0.13429,-1.050722 0.3181,-1.508578 0.0594,-0.147844 0.0835,-0.333179 0.21081,-0.42894 0.8377,-0.630047 1.75803,-1.141984 2.63705,-1.712978 0.12234,-0.05469 0.23876,-0.125267 0.36702,-0.164079 0.72665,-0.219885 1.45999,0.140293 2.10105,0.44264 0.89658,0.50781 1.81898,1.061998 2.3808,1.953411 0.0443,0.12315 0.11407,0.239937 0.13295,0.369448 0.0163,0.111675 0.062,0.271746 -0.0299,0.337243 -1.82729,1.302258 -2.33879,1.734968 -4.17099,1.702123 -1.69275,-0.08444 -3.38103,-0.234939 -5.06859,-0.389242 0,0 2.27736,-1.620168 2.27736,-1.620168 z"
       inkscape:connector-curvature="0" />
  </g>
</svg>
