<?xml version="1.0" encoding="UTF-8" standalone="no"?>
<!-- Created with Inkscape (http://www.inkscape.org/) -->

<svg
   xmlns:dc="http://purl.org/dc/elements/1.1/"
   xmlns:cc="http://creativecommons.org/ns#"
   xmlns:rdf="http://www.w3.org/1999/02/22-rdf-syntax-ns#"
   xmlns:svg="http://www.w3.org/2000/svg"
   xmlns="http://www.w3.org/2000/svg"
   xmlns:sodipodi="http://sodipodi.sourceforge.net/DTD/sodipodi-0.dtd"
   xmlns:inkscape="http://www.inkscape.org/namespaces/inkscape"
   width="173.86905mm"
   height="59.53125mm"
   viewBox="0 0 173.86905 59.531251"
   version="1.1"
   id="svg8"
   inkscape:version="0.92.5 (2060ec1f9f, 2020-04-08)"
   sodipodi:docname="Press_logo.svg">
  <defs
     id="defs2" />
  <sodipodi:namedview
     id="base"
     pagecolor="#ffffff"
     bordercolor="#666666"
     borderopacity="1.0"
     inkscape:pageopacity="0.0"
     inkscape:pageshadow="2"
     inkscape:zoom="1.4"
     inkscape:cx="331.62258"
     inkscape:cy="96.118771"
     inkscape:document-units="mm"
     inkscape:current-layer="g4597"
     showgrid="false"
     inkscape:window-width="1848"
     inkscape:window-height="1136"
     inkscape:window-x="72"
     inkscape:window-y="27"
     inkscape:window-maximized="1" />
  <metadata
     id="metadata5">
    <rdf:RDF>
      <cc:Work
         rdf:about="">
        <dc:format>image/svg+xml</dc:format>
        <dc:type
           rdf:resource="http://purl.org/dc/dcmitype/StillImage" />
        <dc:title></dc:title>
      </cc:Work>
    </rdf:RDF>
  </metadata>
  <g
     inkscape:label="Layer 1"
     inkscape:groupmode="layer"
     id="layer1"
     transform="translate(-12.662195,-43.188984)">
    <g
       id="g4597">
      <rect
         y="43.188984"
         x="12.662195"
         height="59.53125"
         width="173.86905"
         id="rect3717"
         style="fill:#b63f11;fill-opacity:1;stroke-width:0.29754308" />
      <path
         style="opacity:1;fill:#ffffff;fill-opacity:1;stroke:#ffffff;stroke-width:0.26458332;stroke-opacity:1"
         id="path4691"
         d="m 27.91877,55.190777 c 0.183724,2.715746 0.549235,5.415193 0.865147,8.117393 0.308227,2.636472 0.60582,5.274179 0.91333,7.910735 0.413621,3.448682 0.838749,6.895944 1.246136,10.345372 0,0 -2.240783,1.167471 -2.240783,1.167471 v 0 c -0.226915,-3.513507 -0.51028,-7.02334 -0.89179,-10.523828 -0.154417,-1.316871 -0.292498,-2.63576 -0.46325,-3.950613 -0.512245,-3.944464 -1.2296,-7.855717 -1.881278,-11.778262 0,0 2.452488,-1.288268 2.452488,-1.288268 z"
         inkscape:connector-curvature="0" />
      <path
         style="opacity:1;fill:#ffffff;fill-opacity:1;stroke:#ffffff;stroke-width:0.26458332;stroke-opacity:1"
         id="path4693"
         d="m 28.72247,56.201218 c 3.681557,0.265192 7.366684,0.474535 11.045414,0.778476 1.482418,0.135911 2.956668,0.352053 4.405006,0.698631 0.442925,0.10599 1.396068,0.35994 1.854522,0.547865 0.211503,0.0867 0.406591,0.209004 0.609886,0.313505 0.133112,0.135048 0.332584,0.22766 0.399333,0.405145 0.211206,0.561599 -0.150685,1.165939 -0.468281,1.574088 -0.7958,1.022695 -1.699739,1.620675 -2.842297,2.264237 -1.466532,0.826044 -2.981843,1.562325 -4.472765,2.343488 -2.809754,1.213809 -5.707234,2.200429 -8.618825,3.135358 0,0 2.008623,-1.554744 2.008623,-1.554744 v 0 c 2.867666,-0.876806 5.716439,-1.826329 8.457033,-3.053695 0.110535,0.0081 0.233445,0.07576 0.331603,0.0243 1.148953,-0.602359 1.886839,-1.124664 2.697808,-2.077008 0.132191,-0.155234 0.677235,-0.854708 0.567412,-1.226206 -0.0453,-0.153218 -0.221798,-0.230036 -0.332695,-0.345054 -0.187063,-0.09927 -0.366771,-0.213848 -0.561189,-0.297802 -0.480113,-0.207323 -1.297043,-0.442833 -1.776053,-0.565362 -1.407388,-0.360006 -2.843967,-0.581917 -4.286844,-0.740952 -3.744767,-0.360277 -7.50156,-0.60854 -11.265462,-0.611264 0,0 2.247771,-1.613008 2.247771,-1.613008 z"
         inkscape:connector-curvature="0" />
      <path
         style="opacity:1;fill:#ffffff;fill-opacity:1;stroke:#ffffff;stroke-width:0.26458332;stroke-opacity:1"
         id="path4695"
         d="m 39.295727,71.271695 c 0.641964,2.122783 0.673264,4.345434 0.70921,6.542455 0.0043,0.389072 0.0053,0.778198 0.01304,1.167217 0.0072,0.36268 0.01982,1.108443 0.08346,1.513295 0.01437,0.09138 0.162589,0.218514 0.08258,0.264925 -2.881429,1.671354 -2.797033,1.699334 -2.12053,0.669229 0.816907,-1.80281 1.521206,-3.672729 2.608493,-5.339025 0.221453,-0.339383 0.477197,-0.655116 0.715796,-0.982673 0.582104,-0.720952 1.226849,-1.376754 2.048359,-1.82105 2.308582,-1.248545 2.3618,-1.625417 4.288657,-1.700287 0.630177,0.006 1.256081,0.08495 1.881701,0.152374 0,0 -2.255083,1.599933 -2.255083,1.599933 v 0 c -0.605205,-0.07172 -1.212199,-0.147868 -1.823067,-0.136398 -0.19785,0.01614 -0.397417,0.01781 -0.593553,0.04842 -0.21482,0.03352 -0.796425,0.290547 -0.636278,0.143497 0.483664,-0.444119 1.119778,-0.688661 1.650731,-1.075002 0.217754,-0.158446 -0.485969,0.236728 -0.708039,0.389064 -0.62675,0.429945 -0.920472,0.805164 -1.447863,1.362522 -0.246975,0.32117 -0.51299,0.628558 -0.740926,0.963507 -1.096238,1.610905 -1.804675,3.444586 -2.490293,5.255323 -0.423574,1.375849 -0.124849,0.846595 -2.826778,1.788004 -0.105916,0.0369 -0.04526,-0.220366 -0.05324,-0.332245 -0.03022,-0.423998 -0.01076,-1.190141 -0.0052,-1.571406 0.0058,-0.392969 0.01302,-0.785915 0.01952,-1.178872 -0.02572,-2.138931 -0.04188,-4.341929 -0.83814,-6.361699 0,0 2.437405,-1.361112 2.437405,-1.361112 z"
         inkscape:connector-curvature="0" />
      <path
         style="opacity:1;fill:#ffffff;fill-opacity:1;stroke:#ffffff;stroke-width:0.26458332;stroke-opacity:1"
         id="path4697"
         d="m 50.101435,74.980843 c 1.216231,0.336228 2.496936,0.617718 3.766886,0.605547 0.285046,-0.0027 0.56838,-0.04451 0.852569,-0.06676 0.677146,-0.13258 0.932318,-0.145061 1.567977,-0.416047 0.229928,-0.09802 0.88424,-0.466577 0.663847,-0.348673 -2.953787,1.580174 -1.922647,1.262343 -1.348623,0.49068 0.10804,-0.14524 0.176307,-0.316203 0.264464,-0.474305 0.07871,-0.273492 0.220403,-0.570304 0.101028,-0.865862 -0.32794,-0.811946 -1.707771,-0.98412 -2.426078,-1.097317 0.486066,-0.612971 -1.887069,0.468148 -1.476888,0.188748 0.548746,-0.373787 1.122563,-0.751191 1.762606,-0.927774 0.238657,-0.06585 -0.348099,0.35873 -0.473585,0.572145 -0.388557,0.660808 -0.369369,1.009843 -0.491866,1.76222 -0.07922,1.5821 0.293164,3.189603 1.392473,4.382127 0.15322,0.166214 0.33724,0.301136 0.505862,0.451705 1.298443,0.909884 2.480376,0.684665 3.91382,0.247817 0,0 -2.139204,1.64565 -2.139204,1.64565 v 0 c -1.529228,0.394602 -2.764671,0.561297 -4.081251,-0.468905 -0.171968,-0.167122 -0.359838,-0.319302 -0.515903,-0.501365 -1.091689,-1.273542 -1.49543,-2.93765 -1.461836,-4.582236 0.09019,-0.787982 0.06258,-1.147681 0.399386,-1.86594 0.622953,-1.328497 2.014656,-1.68556 3.344656,-2.35645 0.213757,-0.107826 0.468008,-0.112633 0.707025,-0.126418 0.271068,-0.01564 0.542425,0.0258 0.813639,0.03871 0.970364,0.187166 2.799503,0.52223 2.734169,1.864781 -0.0085,0.174964 -0.07768,0.341622 -0.116522,0.512434 -0.08283,0.180147 -0.143394,0.372306 -0.248489,0.540438 -0.708893,1.134063 -2.262952,1.670751 -3.270321,2.25538 -0.695283,0.403505 -1.494224,0.569971 -2.281344,0.667925 -0.287906,0.01132 -0.575643,0.03967 -0.863713,0.03397 -1.318673,-0.02606 -2.638468,-0.30616 -3.918114,-0.598403 0,0 2.32333,-1.563828 2.32333,-1.563828 z"
         inkscape:connector-curvature="0" />
      <path
         style="opacity:1;fill:#ffffff;fill-opacity:1;stroke:#ffffff;stroke-width:0.26458332;stroke-opacity:1"
         id="path4699"
         d="m 67.918103,73.298797 c -2.066983,-0.01624 -4.123322,0.300157 -6.100641,0.899763 -0.420711,0.12758 -0.830431,0.288931 -1.245647,0.433393 -0.322096,0.151527 -1.266471,0.645877 -0.966285,0.454583 0.522623,-0.333046 1.053192,-0.673163 1.636728,-0.881827 0.169042,-0.06045 -0.272925,0.25132 -0.339614,0.418 -0.05101,0.127502 -0.05598,0.290181 0.0076,0.411921 0.233892,0.448043 0.986862,0.800159 1.339594,1.014117 1.131911,0.576789 2.363115,0.891905 3.566644,1.27355 0.453014,0.143653 1.234704,0.337939 1.611633,0.713732 0.136577,0.136168 0.173698,0.344398 0.260548,0.516597 -0.100939,0.232828 -0.146034,0.49894 -0.302816,0.698484 -0.43257,0.550558 -1.36172,1.098711 -1.930498,1.428366 -1.912003,1.108176 -3.377009,1.962899 -5.305284,2.78474 0,0 2.092965,-1.653876 2.092965,-1.653876 v 0 c 0.283181,-0.1216 0.569812,-0.235466 0.849545,-0.364805 0.3462,-0.160073 1.167506,-0.858033 1.027682,-0.503169 -0.15748,0.399677 -0.965057,0.268393 -1.096344,0.677423 -0.128664,0.400873 0.737077,-0.40931 1.085938,-0.645001 0.278672,-0.188269 0.543536,-0.398269 0.79267,-0.624181 0.147653,-0.13389 0.261885,-0.300546 0.39283,-0.450821 -0.04715,-0.132387 -0.04518,-0.294775 -0.141436,-0.397166 -0.333436,-0.354679 -1.110813,-0.56909 -1.505987,-0.703543 -1.214419,-0.413192 -2.458598,-0.750795 -3.617516,-1.313209 -0.522425,-0.305554 -1.235712,-0.602403 -1.555673,-1.183852 -0.199599,-0.362722 -0.08896,-0.87799 0.25658,-1.116679 2.016072,-1.392624 2.269191,-1.453155 3.896286,-2.151176 0.409606,-0.132379 0.814736,-0.279503 1.228817,-0.397137 2.055286,-0.583867 4.176763,-0.888294 6.309781,-0.971542 0,0 -2.248067,1.633315 -2.248067,1.633315 z"
         inkscape:connector-curvature="0" />
      <path
         style="opacity:1;fill:#ffffff;fill-opacity:1;stroke:#ffffff;stroke-width:0.26458332;stroke-opacity:1"
         id="path4701"
         d="m 76.768982,73.54437 c -1.853227,0.355246 -3.625456,1.054182 -5.281359,1.948069 0.606558,-0.33683 1.193763,-0.71115 1.819669,-1.010489 0.104392,-0.04992 -0.392879,0.245494 -0.409061,0.519518 -0.0227,0.384434 1.111774,0.684313 1.262329,0.740949 1.594721,0.528098 3.244022,0.864854 4.850461,1.351593 0.912805,0.276571 1.017648,0.334846 1.854983,0.662416 0.339741,0.183578 0.818661,0.348892 0.981276,0.761992 0.697124,1.77093 -4.294407,3.609115 -4.364265,3.646352 -3.108846,0.813311 -6.346187,0.906063 -9.541806,1.002226 -0.240998,0.0054 -0.481994,0.0109 -0.722992,0.01635 0,0 2.194091,-1.59354 2.194091,-1.59354 v 0 c 0.222361,0.0062 0.444725,0.01246 0.667086,0.01868 3.175032,2.65e-4 6.406145,-0.107868 9.456881,-1.0699 -0.385578,0.273923 -0.764723,0.55713 -1.156732,0.821764 -0.207484,0.140067 0.777451,-0.395616 1.059545,-0.992479 0.290475,-0.614593 -0.384297,-0.895162 -0.800735,-1.120322 -0.809249,-0.338768 -0.893845,-0.393851 -1.786057,-0.674712 -1.620459,-0.510109 -3.288559,-0.852511 -4.91804,-1.330986 -0.48868,-0.179711 -1.460617,-0.374708 -1.550591,-1.056013 -0.176437,-1.336019 4.400839,-1.898973 3.206123,-2.381054 1.709042,-0.862328 3.520535,-1.536039 5.399958,-1.916475 0,0 -2.220764,1.656059 -2.220764,1.656059 z"
         inkscape:connector-curvature="0" />
      <path
         style="opacity:1;fill:#ffffff;fill-opacity:1;stroke:#ffffff;stroke-width:0.26458332;stroke-opacity:1"
         id="path4703"
         d="m 102.35549,60.333023 c 0.002,1.901786 0.0736,3.803403 0.0642,5.705226 -0.006,1.164054 -0.0633,3.031415 -0.0952,4.19666 -0.14421,2.777786 -0.0739,5.557324 0.13217,8.329163 0,0 -2.33936,1.206854 -2.33936,1.206854 v 0 c -0.0764,-2.806943 -0.141906,-5.617228 0.008,-8.423246 0.0934,-3.247739 0.17704,-6.515258 -0.263556,-9.744035 0,0 2.493736,-1.270622 2.493736,-1.270622 z"
         inkscape:connector-curvature="0" />
      <path
         style="opacity:1;fill:#ffffff;fill-opacity:1;stroke:#ffffff;stroke-width:0.26458332;stroke-opacity:1"
         id="path4705"
         d="m 110.23045,72.541668 c -0.77374,-0.03941 -1.56198,0.01175 -2.31222,0.219308 -0.2775,0.07678 -1.04168,0.469471 -0.81114,0.296976 0.48859,-0.365569 1.00295,-0.766225 1.60091,-0.887886 0.30942,-0.06295 -0.43023,0.462312 -0.64534,0.693468 -0.17206,0.304503 -0.37439,0.593786 -0.51618,0.913511 -0.49397,1.113954 -0.8507,2.769907 -0.28725,3.928697 0.10727,0.220602 0.2903,0.395486 0.43546,0.593228 0.21175,0.134524 0.40245,0.310105 0.63526,0.403571 0.60586,0.24324 1.31684,0.24093 1.94889,0.180906 1.33586,-0.126857 2.61365,-0.549309 3.88047,-0.961334 -0.81637,0.607589 2.90186,-1.351105 2.18343,-0.998492 -0.49808,0.244461 -0.93673,0.644427 -1.4783,0.765018 -0.25316,0.05637 0.41044,-0.334179 0.54342,-0.55685 0.33701,-0.564343 0.13921,-0.790485 -0.0245,-1.361702 -0.15794,-0.230187 -0.28857,-0.481732 -0.47384,-0.690565 -1.1659,-1.314246 -2.89853,-1.813919 -4.53926,-2.210186 -0.29186,-0.03606 -0.58371,-0.07212 -0.87556,-0.10818 0,0 2.18934,-1.54305 2.18934,-1.54305 v 0 c 0.29053,0.04826 0.58106,0.09653 0.87159,0.144793 1.69048,0.447469 3.45755,1.002972 4.66322,2.358194 0.20368,0.228947 0.3501,0.503031 0.52516,0.754544 0.0925,0.275691 0.2511,0.537478 0.27754,0.827072 0.054,0.591214 -0.19086,1.076005 -0.67732,1.410658 -1.65676,1.139748 -3.34285,2.142474 -5.23428,2.796503 -1.68889,0.526505 -4.3285,1.437872 -6.04884,0.644445 -0.25503,-0.117626 -0.45931,-0.323342 -0.68897,-0.48501 -0.15606,-0.225981 -0.35251,-0.428858 -0.46819,-0.677939 -0.56464,-1.215785 -0.23636,-2.938465 0.22813,-4.128961 0.12969,-0.332377 0.3179,-0.638836 0.47685,-0.958254 0.19659,-0.256252 0.32389,-0.585404 0.58978,-0.768758 2.37622,-1.638594 3.62265,-2.204506 6.27661,-2.224688 0,0 -2.24483,1.630963 -2.24483,1.630963 z"
         inkscape:connector-curvature="0" />
      <path
         style="opacity:1;fill:#ffffff;fill-opacity:1;stroke:#ffffff;stroke-width:0.26458332;stroke-opacity:1"
         id="path4707"
         d="m 123.3005,72.292367 c -1.00385,-0.148603 -2.04544,-0.148812 -3.0137,0.19436 -0.32216,0.114181 -1.2042,0.631124 -0.93548,0.419892 0.36827,-0.289494 0.82717,-0.439907 1.24075,-0.659863 -0.99029,0.738735 -1.96375,1.571109 -2.63946,2.623039 -0.3092,0.481364 -0.6308,1.145529 -0.55469,1.753092 0.0344,0.274212 0.20525,0.513189 0.30788,0.769784 0.24826,0.234358 0.46701,0.504574 0.74479,0.70307 1.62984,1.164679 4.11272,1.454599 6.05407,1.35025 0.59847,-0.03217 1.18841,-0.156398 1.78262,-0.234598 0.19604,-0.06248 2.79925,-0.769522 2.9023,-1.255855 0.0909,-0.429178 -0.88876,0.697899 -1.24145,0.436999 -0.29229,-0.216212 0.45203,-0.576871 0.60916,-0.904724 0.39646,-0.827228 0.27223,-0.995765 0.2003,-1.852893 -0.2931,-0.894736 -0.82285,-1.705187 -1.60772,-2.246032 -0.35483,-0.244518 -0.27549,-0.254424 -0.44308,-0.03705 0.78717,-0.39983 1.51261,-0.956868 2.36151,-1.199494 0.16224,-0.04637 0.0589,0.332441 0.097,0.496824 0.0549,0.236943 0.11989,0.47143 0.18174,0.706647 0.23562,0.895974 0.46809,1.792639 0.70172,2.689153 0.31226,1.184678 0.54998,2.423761 0.19904,3.631864 -0.27852,0.958797 -0.58224,1.32801 -1.10595,2.213975 -2.00497,2.780168 -4.18802,5.438045 -6.51394,7.955894 -1.34416,1.388369 -2.6518,2.223455 -4.60173,2.913452 -0.30386,0.107524 -0.6433,-0.06085 -0.95832,-0.129109 -0.70334,-0.1524 -1.38532,-0.431356 -2.05698,-0.679635 -0.65307,-0.327174 -1.42813,-0.531678 -1.97851,-1.042927 -0.0783,-0.07272 -0.12641,-0.17231 -0.18962,-0.258466 0,0 2.40502,-1.406986 2.40502,-1.406986 v 0 c 0.0369,0.06637 0.0587,0.143817 0.11079,0.199113 0.48785,0.518022 1.23219,0.722503 1.84466,1.03016 0.6943,0.246957 1.30096,0.501256 2.03688,0.608984 0.30159,0.04415 1.06087,-0.234101 0.91381,0.03288 -0.29997,0.544578 -1.01022,0.725233 -1.52414,1.07515 -0.57804,0.393584 2.57152,-1.79687 1.61013,-1.344935 2.36454,-2.468616 4.55389,-5.111232 6.53012,-7.900861 0.48729,-0.819197 0.79601,-1.214583 1.07485,-2.09931 0.36833,-1.168701 0.16445,-2.374 -0.13867,-3.529274 -0.23333,-0.891924 -0.46814,-1.782008 -0.73504,-2.664616 -0.0704,-0.232709 -0.14443,-0.464291 -0.21634,-0.696532 -0.0548,-0.177059 -0.29127,-0.396782 -0.16383,-0.531368 0.67435,-0.712141 1.56474,-1.182851 2.34712,-1.774277 0.73479,0.241271 1.50993,1.236438 1.83924,1.891633 0.13891,0.276368 0.22852,0.574874 0.34278,0.862309 0.0366,0.333521 0.13449,0.665948 0.10981,1.000562 -0.16679,2.260571 -2.3459,3.090513 -4.04145,4.165668 -1.22526,0.776952 -1.49469,0.73814 -2.91804,1.146009 -0.59992,0.06701 -1.19656,0.17753 -1.79975,0.201028 -1.99292,0.07763 -4.60303,-0.229138 -6.2696,-1.432153 -0.30875,-0.222872 -0.55395,-0.522618 -0.83093,-0.783929 -0.12324,-0.295881 -0.32119,-0.570814 -0.36973,-0.887637 -0.10107,-0.659604 0.21349,-1.371695 0.5416,-1.907299 0.65857,-1.075034 1.63451,-1.931646 2.60552,-2.709976 0.99931,-0.587587 2.82241,-1.87628 4.26121,-2.325651 1.02681,-0.320693 2.11143,-0.279257 3.16723,-0.177099 0,0 -2.27551,1.600761 -2.27551,1.600761 z"
         inkscape:connector-curvature="0" />
      <path
         style="opacity:1;fill:#ffffff;fill-opacity:1;stroke:#ffffff;stroke-width:0.26458332;stroke-opacity:1"
         id="path4709"
         d="m 138.91455,71.793953 c -0.12746,0.01519 -0.25552,0.02603 -0.38241,0.04555 -0.47209,0.0726 -0.86364,0.142126 -1.31682,0.322884 -0.27511,0.109731 -1.05796,0.532667 -0.79844,0.389922 1.94347,-1.068986 1.7937,-1.058413 0.72587,-0.05481 -0.76351,0.993677 -1.22544,1.872419 -0.89964,3.171029 0.10755,0.428683 0.28338,0.849421 0.53337,1.213892 0.71495,1.042334 1.36741,1.254607 2.43641,1.880198 0.55748,0.174025 1.10206,0.39665 1.67245,0.522068 1.74566,0.383842 3.57892,0.307181 5.2855,-0.229312 0.49242,-0.154799 0.92766,-0.468463 1.42544,-0.605028 0.37824,-0.103769 -0.70836,0.336979 -1.06254,0.505468 0.90939,-0.756822 1.65919,-1.64996 1.84842,-2.859751 0.0596,-0.38126 0.0929,-0.780074 0.013,-1.157611 -0.21624,-1.021929 -0.7223,-1.389131 -1.38423,-2.138396 -1.11597,-0.923081 -2.4033,-1.439739 -3.83452,-1.633347 -0.47897,-0.06479 -0.96516,-0.05395 -1.44773,-0.08093 0,0 2.09375,-1.500066 2.09375,-1.500066 v 0 c 0.49075,0.03774 0.98593,0.03728 1.47223,0.113223 1.4744,0.230244 2.79249,0.794404 3.93361,1.761157 0.70724,0.801092 1.24195,1.202738 1.50422,2.28578 0.096,0.396264 0.0747,0.818037 0.0263,1.222868 -0.15185,1.269912 -0.87785,2.2294 -1.81185,3.044388 -1.12135,0.673925 -2.2112,1.403286 -3.36406,2.021776 -1.92143,1.030817 -4.69725,1.155621 -6.78062,0.667168 -0.58651,-0.137509 -1.14576,-0.372628 -1.71864,-0.558942 -1.13699,-0.67037 -1.79437,-0.88387 -2.56527,-1.987328 -0.26928,-0.38544 -0.45899,-0.83008 -0.58765,-1.282322 -0.38835,-1.365059 -0.006,-2.264452 0.7628,-3.363812 0.24295,-0.250039 0.44149,-0.552714 0.72885,-0.750117 1.89147,-1.299329 3.51104,-2.415141 5.75977,-2.613041 0,0 -2.26751,1.647436 -2.26751,1.647436 z"
         inkscape:connector-curvature="0" />
    </g>
  </g>
</svg>
