<svg id="Layer_1" data-name="Layer 1" xmlns="http://www.w3.org/2000/svg" viewBox="0 0 1415.12 364"><title>Janeway-Logo-Final</title><path class="cls-1" d="M481.93,286.44c0,37.1-23.57,64.17-63.14,64.17-36.69,0-62.93-21.93-62.93-62.53h26.65c0,24.6,11.89,37.11,36.28,37.11,24.6,0,36.08-17,36.08-38.75v-57H411.62V204.24h70.31Z"/><path class="cls-1" d="M608,320.68H533l-12.3,27.06H491.36l64.37-143.5h29.52l64.37,143.5H620.09Zm-37.51-86.31-26.65,61.09h53.3Z"/><path class="cls-1" d="M755.58,204h27.06V347.74H765.83v.21l-75.43-97v96.76H663.33V204.24h21.93l70.31,89Z"/><path class="cls-1" d="M917.72,347.74H810.31V204.24H917.72v26.24H837.16v33h77.69V288.7H837.16v32.39h80.56Z"/><path class="cls-1" d="M1098.92,347.74h-23l-17.83-45.1L1043,257.33,1028,303l-17.42,44.69h-23l-52.68-143.5h30.34l33.82,103.53,34.85-103.53h17.63l35.87,103.53,32.8-103.53h30.34Z"/><path class="cls-1" d="M1255.52,320.68h-75l-12.3,27.06h-29.31l64.36-143.5h29.52l64.36,143.5h-29.52ZM1218,234.37l-26.65,61.09h53.3Z"/><path class="cls-1" d="M1344.28,263.48l38.13-59.25H1415v1.23l-57.19,83v59.25h-27.06V288.49l-55.14-83v-1.23h32.18Z"/><path class="cls-1" d="M1337.38,0H0V364H338.53V232a77,77,0,0,1,77-77h921.88a77.52,77.52,0,0,0,0-155ZM24.64,335.64,86.79,183.38l27,11L51.65,346.67Zm39.31,0L126.1,183.38l27,11L91,346.67Zm112.5,11.61H147.27V222.14h29.18Zm36.25,0H183.52V182.8H212.7Zm43.84,0H219.82v-176h36.72Zm28.85,0L261.57,206.91l29.29-5,23.83,140.35Z"/></svg>