<?xml version="1.0" standalone="no"?>
<!DOCTYPE svg PUBLIC "-//W3C//DTD SVG 20010904//EN"
 "http://www.w3.org/TR/2001/REC-SVG-20010904/DTD/svg10.dtd">
<svg version="1.0" xmlns="http://www.w3.org/2000/svg"
 width="1740.000000pt" height="881.000000pt" viewBox="0 0 1740.000000 881.000000"
 preserveAspectRatio="xMidYMid meet">
<metadata>
Created by potrace 1.14, written by Peter Selinger 2001-2017
</metadata>
<g transform="translate(0.000000,881.000000) scale(0.100000,-0.100000)"
fill="#000000" stroke="none">
<path d="M4340 8173 c-915 -64 -1721 -423 -2363 -1052 -887 -868 -1275 -2124
-1036 -3348 174 -891 675 -1691 1404 -2239 977 -736 2263 -938 3425 -539 1079
371 1937 1236 2298 2320 296 885 242 1875 -148 2718 l-40 87 -685 0 c-377 0
-685 -2 -685 -5 0 -3 35 -51 78 -107 105 -138 170 -245 252 -413 327 -669 344
-1424 48 -2115 -213 -499 -615 -942 -1096 -1209 -559 -310 -1224 -397 -1842
-241 -470 119 -858 345 -1205 701 -152 157 -250 284 -357 462 -305 512 -421
1124 -322 1712 96 574 401 1114 842 1496 308 265 727 477 1107 559 270 58 119
54 2368 57 l2067 4 0 579 0 580 -2032 -2 c-1118 -1 -2053 -3 -2078 -5z"/>
<path d="M8860 7601 l0 -579 78 -7 c265 -21 507 -71 717 -147 137 -50 354
-152 359 -170 4 -10 63 -1368 116 -2645 10 -241 35 -469 69 -634 154 -748 504
-1389 1047 -1919 473 -461 1039 -778 1679 -939 219 -55 464 -91 723 -106 l112
-7 0 580 0 580 -87 6 c-349 27 -660 108 -943 247 -284 138 -478 276 -695 494
-394 393 -635 870 -720 1421 -9 61 -48 766 -100 1824 -47 949 -85 1732 -85
1740 0 8 -64 61 -143 117 -626 448 -1219 666 -1932 713 -88 5 -168 10 -177 10
-17 0 -18 -32 -18 -579z"/>
<path d="M12630 5535 l0 -2575 580 0 580 0 0 540 0 540 945 0 945 0 0 -1660 0
-1660 580 0 580 0 0 3695 0 3695 -580 0 -580 0 0 -1460 0 -1460 -945 0 -945 0
0 1460 0 1460 -580 0 -580 0 0 -2575z"/>
<path d="M4519 5569 c-192 -45 -355 -192 -429 -384 -32 -83 -39 -262 -15 -355
22 -84 73 -182 131 -248 l45 -52 -177 -622 c-97 -343 -179 -631 -182 -640 -4
-17 37 -18 768 -18 613 0 771 3 768 13 -3 6 -85 294 -183 638 l-178 625 52 65
c121 150 168 337 130 521 -43 207 -226 398 -435 453 -63 16 -234 19 -295 4z"/>
</g>
</svg>
